<?xml version="1.0" encoding="UTF-8"?>
<svg width="1200pt" height="1200pt" version="1.1" viewBox="0 0 1200 1200" xmlns="http://www.w3.org/2000/svg">
 <path d="m1089.4 371.76c-5.25-11.25-18.656-16.172-29.906-10.875-11.25 5.25-16.125 18.656-10.875 29.906 30.328 65.062 46.359 137.39 46.359 209.21s-16.031 144.19-46.359 209.21c-5.25 11.25-0.375 24.656 10.875 29.906 3.0938 1.4062 6.3281 2.1094 9.4688 2.1094 8.4844 0 16.594-4.8281 20.391-12.984 33.094-70.969 50.625-149.9 50.625-228.24s-17.484-157.26-50.625-228.24z"/>
 <path d="m984.14 440.34c-11.672 4.2656-17.719 17.156-13.453 28.828 15.328 42.047 23.062 86.062 23.062 130.82 0 44.762-7.7344 88.781-23.062 130.78-4.2656 11.672 1.7344 24.609 13.406 28.828 2.5312 0.9375 5.1562 1.3594 7.7344 1.3594 9.1875 0 17.812-5.6719 21.141-14.766 17.109-46.969 25.781-96.188 25.781-146.26 0-50.07-8.6719-99.234-25.781-146.21-4.2188-11.672-17.203-17.766-28.828-13.453z"/>
 <path d="m140.53 360.89c-11.25-5.25-24.656-0.375-29.906 10.875-33.094 70.969-50.625 149.9-50.625 228.24s17.484 157.26 50.625 228.24c3.8438 8.1562 11.906 12.984 20.391 12.984 3.1875 0 6.4219-0.70312 9.4688-2.1094 11.25-5.25 16.125-18.656 10.875-29.906-30.328-65.062-46.359-137.39-46.359-209.21s16.031-144.14 46.359-209.21c5.25-11.25 0.375-24.656-10.875-29.906z"/>
 <path d="m215.86 440.34c-11.625-4.3125-24.609 1.7812-28.828 13.453-17.109 46.969-25.781 96.188-25.781 146.21 0 50.062 8.6719 99.234 25.781 146.26 3.3281 9.1406 11.953 14.766 21.141 14.766 2.5312 0 5.1562-0.42188 7.7344-1.3594 11.672-4.2188 17.672-17.156 13.406-28.828-15.328-42-23.062-86.016-23.062-130.78 0-44.766 7.7344-88.781 23.062-130.82 4.2656-11.672-1.7344-24.609-13.453-28.828z"/>
 <path d="m600 262.5c-186.1 0-337.5 151.4-337.5 337.5s151.4 337.5 337.5 337.5 337.5-151.4 337.5-337.5-151.4-337.5-337.5-337.5zm0 630c-161.29 0-292.5-131.21-292.5-292.5s131.21-292.5 292.5-292.5 292.5 131.21 292.5 292.5-131.21 292.5-292.5 292.5z"/>
 <path d="m738.94 548.39-173.29-100.03c-18.656-10.781-40.922-10.781-59.578-0.046875-18.656 10.781-29.812 30.094-29.812 51.656v200.11c0 21.562 11.156 40.828 29.812 51.656 9.3281 5.3906 19.547 8.0625 29.812 8.0625 10.219 0 20.438-2.6719 29.812-8.0625l173.29-100.08c18.656-10.781 29.766-30.094 29.766-51.609 0-21.562-11.156-40.828-29.812-51.609zm-22.5 64.266-173.29 100.03c-6.6094 3.7969-12.422 1.2656-14.578 0-2.2031-1.2656-7.3125-5.0156-7.3125-12.656v-200.11c0-7.5938 5.1094-11.391 7.3125-12.656 1.3125-0.75 3.9844-2.0156 7.3594-2.0156 2.1562 0 4.6406 0.51562 7.2188 2.0156l173.29 100.03c6.5625 3.7969 7.3125 10.125 7.3125 12.656s-0.70312 8.8594-7.3125 12.656z"/>
</svg>
