<?xml version="1.0" encoding="UTF-8"?>
<svg width="1200pt" height="1200pt" version="1.1" viewBox="0 0 1200 1200" xmlns="http://www.w3.org/2000/svg">
 <path d="m600 825c124.2 0 225-100.8 225-225v-360c0-124.2-100.8-225-225-225s-225 100.8-225 225v360c0 124.2 100.8 225 225 225zm-135-585c0-74.398 60.602-135 135-135s135 60.602 135 135v360c0 74.398-60.602 135-135 135s-135-60.602-135-135z"/>
 <path d="m834.6 810c-60 66.602-145.2 105-234.6 105s-175.2-38.398-234.6-105c-16.797-18.602-45-19.801-63.598-3.6016-18.602 16.801-19.801 45-3.6016 63.602 66.602 74.398 158.4 121.2 256.8 132.6v92.398h-75c-24.602 0-45 20.398-45 45s20.398 45 45 45h240c24.602 0 45-20.398 45-45s-20.398-45-45-45h-75v-92.398c98.398-10.801 190.2-57.602 256.8-132.6 16.801-18.602 15-46.801-3.6016-63.602-18.598-16.797-46.801-15-63.598 3.6016z"/>
 <path d="m1068 145.2c-19.199-15.598-47.398-12.598-63 6.6016s-12.602 47.398 6.6016 63c53.398 43.199 83.398 106.8 83.398 175.2 0 75-37.199 145.2-100.2 187.2-20.402 13.801-26.402 42-12.602 62.402 8.4023 13.199 22.801 19.797 37.199 19.797 8.4023 0 17.402-2.3984 25.203-7.7969 87.598-58.801 139.8-156.6 139.8-262.2 0-95.398-42.598-184.8-117-244.8z"/>
 <path d="m966 273c-15-19.801-43.199-24-63-9s-24 43.199-9 63c13.801 18 21 40.199 21 63s-7.1992 45-21 63c-15 19.801-10.801 48 9 63 8.3984 6 17.398 9 27 9 13.801 0 27-6 36-18 25.801-34.199 39-74.398 39-117s-13.199-83.398-39-117z"/>
 <path d="m105 390c0-68.398 30.602-132 83.398-175.2 19.203-15.602 22.203-43.801 6.6016-63s-43.801-22.199-63-6.6016c-74.398 60-117 149.4-117 244.8 0 105.6 52.199 203.4 139.8 262.2 7.8008 5.4023 16.199 7.8008 25.199 7.8008 14.398 0 28.801-7.1992 37.199-19.801 13.801-20.398 8.4023-48.598-12.598-62.398-62.402-42-100.2-111.6-100.2-187.2z"/>
 <path d="m306 453c-13.801-18-21-40.199-21-63s7.1992-45 21-63c15-19.801 10.801-48-9-63s-48-10.801-63 9c-25.801 34.199-39 74.398-39 117s13.199 83.398 39 117c9 12 22.199 18 36 18 9.6016 0 18.602-3 27-9 19.801-15 24-43.199 9-63z"/>
</svg>
