<?xml version="1.0" encoding="UTF-8"?>
<svg width="1200pt" height="1200pt" version="1.1" viewBox="0 0 1200 1200" xmlns="http://www.w3.org/2000/svg">
 <path d="m600 525c59.672 0 116.9-23.707 159.1-65.902 42.195-42.195 65.902-99.426 65.902-159.1s-23.707-116.9-65.902-159.1c-42.195-42.195-99.426-65.902-159.1-65.902s-116.9 23.707-159.1 65.902c-42.195 42.195-65.902 99.426-65.902 159.1 0.066406 59.652 23.793 116.84 65.973 159.03 42.184 42.18 99.375 65.906 159.03 65.973zm0-375c39.781 0 77.938 15.805 106.07 43.934s43.934 66.285 43.934 106.07-15.805 77.938-43.934 106.07-66.285 43.934-106.07 43.934-77.938-15.805-106.07-43.934-43.934-66.285-43.934-106.07c0.042969-39.77 15.859-77.898 43.98-106.02 28.121-28.121 66.25-43.938 106.02-43.98zm-37.5 937.5c0 9.9453-3.9492 19.484-10.984 26.516-7.0312 7.0352-16.57 10.984-26.516 10.984h-150c-39.77-0.042969-77.898-15.859-106.02-43.98-28.121-28.121-43.938-66.25-43.98-106.02v-37.5c0.042969-80.504 25.973-158.86 73.969-223.49 47.992-64.633 115.5-112.11 192.55-135.43 77.051-23.316 159.56-21.23 235.34 5.9453 9.5781 3.1914 17.461 10.113 21.875 19.191 4.4102 9.082 4.9727 19.559 1.5586 29.059-3.4102 9.5-10.512 17.227-19.691 21.426-9.1797 4.1992-19.664 4.5234-29.086 0.89062-60.625-21.723-126.63-23.375-188.27-4.7148-61.637 18.66-115.64 56.645-154.04 108.34-38.398 51.699-59.156 114.38-59.207 178.78v37.5c0.023438 19.883 7.9336 38.949 21.992 53.008 14.059 14.059 33.125 21.969 53.008 21.992h150c9.9453 0 19.484 3.9492 26.516 10.984 7.0352 7.0312 10.984 16.57 10.984 26.516zm401.51-439.01-75-75c-7.0391-7.0117-16.57-10.945-26.508-10.938-9.9336 0.007813-19.461 3.9531-26.492 10.973-7.0312 7.0195-10.992 16.543-11.012 26.477v245.86c-22.695-13.508-48.59-20.711-75-20.859-39.781 0-77.938 15.805-106.07 43.934s-43.934 66.285-43.934 106.07 15.805 77.938 43.934 106.07 66.285 43.934 106.07 43.934 77.938-15.805 106.07-43.934 43.934-66.285 43.934-106.07v-284.47l10.988 10.988c9.5195 9.2344 23.207 12.754 36 9.2539 12.793-3.4961 22.785-13.492 26.281-26.281 3.4961-12.793-0.023437-26.48-9.2578-36zm-214.01 401.51c-19.891 0-38.969-7.9023-53.031-21.969-14.066-14.062-21.969-33.141-21.969-53.031s7.9023-38.969 21.969-53.031c14.062-14.066 33.141-21.969 53.031-21.969s38.969 7.9023 53.031 21.969c14.066 14.062 21.969 33.141 21.969 53.031-0.023438 19.883-7.9336 38.949-21.992 53.008-14.059 14.059-33.125 21.969-53.008 21.992z"/>
</svg>
