<?xml version="1.0" encoding="UTF-8"?>
<svg width="1200pt" height="1200pt" version="1.1" viewBox="0 0 1200 1200" xmlns="http://www.w3.org/2000/svg">
 <path d="m519.19 485.9h-276.84c-20.719 0-37.5 16.781-37.5 37.5v179.53c0 20.719 16.781 37.5 37.5 37.5h276.84c20.719 0 37.5-16.781 37.5-37.5v-179.53c0-20.719-16.781-37.5-37.5-37.5zm-37.5 179.58h-201.84v-104.53h201.84z"/>
 <path d="m519.19 844.6h-276.89c-20.719 0-37.5 16.781-37.5 37.5s16.781 37.5 37.5 37.5h276.89c20.719 0 37.5-16.781 37.5-37.5s-16.781-37.5-37.5-37.5z"/>
 <path d="m957.71 485.9h-276.84c-20.719 0-37.5 16.781-37.5 37.5s16.781 37.5 37.5 37.5h276.84c20.719 0 37.5-16.781 37.5-37.5s-16.734-37.5-37.5-37.5z"/>
 <path d="m957.71 665.48h-276.84c-20.719 0-37.5 16.781-37.5 37.5s16.781 37.5 37.5 37.5h276.84c20.719 0 37.5-16.781 37.5-37.5 0-20.766-16.734-37.5-37.5-37.5z"/>
 <path d="m957.71 844.6h-276.89c-20.719 0-37.5 16.781-37.5 37.5s16.781 37.5 37.5 37.5h276.89c20.719 0 37.5-16.781 37.5-37.5s-16.734-37.5-37.5-37.5z"/>
 <path d="m1162.5 280.55c0-0.046875-0.046875-0.14062-0.046875-0.14062v-130.4c0-62.016-50.484-112.5-112.5-112.5h-900c-62.016 0-112.5 50.484-112.5 112.5v130.4s-0.046875 0.09375-0.046875 0.14062 0.046875 0.14062 0.046875 0.1875v769.26c0 62.016 50.484 112.5 112.5 112.5h900c62.016 0 112.5-50.484 112.5-112.5v-769.26c0-0.046875 0.046875-0.14062 0.046875-0.1875zm-1012.5-168.05h900c20.719 0 37.5 16.781 37.5 37.5v93.047h-975v-93.047c0-20.719 16.781-37.5 37.5-37.5zm900 975h-900c-20.719 0-37.5-16.781-37.5-37.5v-731.95h975v731.95c0 20.719-16.781 37.5-37.5 37.5z"/>
</svg>
