<?xml version="1.0" encoding="UTF-8"?>
<svg width="1200pt" height="1200pt" version="1.1" viewBox="0 0 1200 1200" xmlns="http://www.w3.org/2000/svg">
 <path d="m1075.2 984c0 38.398-31.199 69.602-69.602 69.602h-733.2c12-19.199 19.199-42 19.199-67.199l0.003906-841.2h784.8v210c25.199-19.199 45.602-32.398 63.602-38.398v-204c0-18-14.398-32.398-32.398-32.398l-848.41-0.003906c-16.801 1.2031-31.199 15.602-31.199 33.602v654h-165.6c-18 0-32.398 14.398-32.398 32.398v187.2c0 72 58.801 130.8 130.8 130.8h844.8c73.199 0 133.2-60 133.2-133.2v-200.4c-20.398 42-42 73.199-63.602 97.199zm-847.2 3.6016c0 37.199-30 67.199-67.199 67.199s-67.199-30-67.199-67.199v-154.8h134.4z"/>
 <path d="m793.2 892.8h-369.6c-18 0-32.398 14.398-32.398 32.398s14.398 32.398 32.398 32.398h346.8c-1.1992-14.398 1.1992-30 9.6016-42z"/>
 <path d="m423.6 730.8c-18 0-32.398 14.398-32.398 32.398s14.398 32.398 32.398 32.398h369.6c-1.1992-18 0-39.602 6-63.602l-375.6 0.003906z"/>
 <path d="m878.4 567.6h-454.8c-18 0-32.398 14.398-32.398 32.398s14.398 32.398 32.398 32.398h415.2c12-22.797 25.199-44.398 39.598-64.797z"/>
 <path d="m423.6 469.2h157.2c18 0 32.398-14.398 32.398-32.398v-160.8c0-18-14.398-32.398-32.398-32.398h-157.2c-18 0-32.398 14.398-32.398 32.398v162c-0.003906 18 14.398 31.199 32.398 31.199z"/>
 <path d="m943.2 243.6h-229.2c-18 0-32.398 14.398-32.398 32.398s14.398 32.398 32.398 32.398h230.4c18 0 32.398-14.398 32.398-32.398-1.1953-18-15.598-32.398-33.598-32.398z"/>
 <path d="m975.6 438c0-18-14.398-32.398-32.398-32.398h-229.2c-18 0-32.398 14.398-32.398 32.398s14.398 32.398 32.398 32.398h230.4c16.801-1.1992 31.203-14.398 31.203-32.398z"/>
 <path d="m1164 372c-12-6-79.199 46.801-148.8 122.4-1.1992 1.1992-1.1992 1.1992-1.1992 2.3984l-24 123.6-19.199-63.602c-1.1992-3.6016-6-4.8008-8.3984-1.1992-21.602 26.398-42 55.199-58.801 82.801-1.1992 1.1992-1.1992 2.3984-1.1992 3.6016l16.797 126-44.398-56.398c-2.3984-3.6016-7.1992-2.3984-8.3984 1.1992-21.602 57.602-21.602 110.4 19.199 142.8l-54 87.602c-3.6016 6 1.1992 14.398 8.3984 14.398h44.398c4.8008 0 8.3984-3.6016 9.6016-7.1992 3.6016-14.398 10.801-45.602 24-75.602 72 28.801 128.4-31.199 170.4-118.8 1.1992-3.6016-1.1992-8.3984-4.8008-7.1992l-72 10.801 108-86.398c1.1992-1.1992 1.1992-1.1992 1.1992-2.3984 10.801-33.602 20.398-69.602 27.602-103.2 1.1992-3.6016-2.3984-7.1992-6-6l-76.801 14.398 93.602-79.199c1.1992-1.1992 1.1992-2.3984 1.1992-3.6016 12-66.004 12-116.4 3.6016-121.2z"/>
</svg>
