<?xml version="1.0" encoding="UTF-8"?>
<svg width="1200pt" height="1200pt" version="1.1" viewBox="0 0 1200 1200" xmlns="http://www.w3.org/2000/svg">
 <path d="m586.3 264.41-302.29 226.72c-5.582 4.2344-9.0117 11.176-8.9727 18.184v408.09c0 11.871 10.801 22.672 22.672 22.672h204.04c11.871 0 22.668-10.801 22.672-22.672v-113.36c0-42.258 33.312-75.574 75.57-75.574 42.258 0 75.57 33.312 75.57 75.574v113.36c0 11.871 10.801 22.672 22.672 22.672h204.04c11.871 0 22.668-10.801 22.672-22.672v-408.09c0-7.0078-3.3906-13.949-8.9727-18.184l-302.29-226.72c-9.8984-6.2852-18.152-5.6445-27.395 0zm13.699 46.523 279.61 209.71v374.08h-158.7v-90.684c0-66.598-54.32-120.91-120.91-120.91s-120.91 54.32-120.91 120.91v90.684h-158.7v-374.08z"/>
</svg>
